<?xml version="1.0" standalone="no"?>
<!DOCTYPE svg PUBLIC "-//W3C//DTD SVG 20010904//EN"
 "http://www.w3.org/TR/2001/REC-SVG-20010904/DTD/svg10.dtd">
<svg version="1.0" xmlns="http://www.w3.org/2000/svg"
 width="300.000000pt" height="300.000000pt" viewBox="0 0 300.000000 300.000000"
 preserveAspectRatio="xMidYMid meet">
<metadata>
Created by potrace 1.10, written by Peter Selinger 2001-2011
</metadata>
<g transform="translate(0.000000,300.000000) scale(0.100000,-0.100000)"
fill="#000000" stroke="none">
<path d="M1273 2978 c-6 -7 -30 -65 -53 -128 -184 -492 -473 -978 -759 -1273
-63 -65 -74 -81 -65 -95 19 -30 106 -27 250 9 114 29 144 32 264 32 143 -1
184 -9 380 -79 67 -24 89 -27 210 -27 123 0 142 2 210 27 209 77 216 78 365
79 126 1 152 -2 266 -31 161 -41 269 -43 269 -6 0 8 -43 63 -95 122 -292 329
-547 764 -731 1250 -24 63 -49 119 -56 124 -22 14 -444 10 -455 -4z m438 -58
c4 -8 33 -80 64 -160 31 -80 100 -233 153 -340 53 -107 98 -199 100 -204 8
-17 -62 38 -128 100 -36 34 -94 98 -130 143 -36 45 -70 81 -76 81 -19 0 -39
-31 -86 -130 -46 -98 -90 -160 -113 -160 -24 0 -77 72 -119 164 -48 102 -68
125 -91 106 -8 -6 -33 -46 -56 -88 -52 -97 -125 -196 -186 -253 -49 -46 -143
-114 -143 -105 0 3 23 45 50 93 108 187 250 497 334 726 l18 47 200 -2 c166
-3 202 -6 209 -18z m160 -644 c35 -32 98 -81 138 -108 50 -33 83 -63 100 -91
14 -23 54 -84 90 -135 36 -52 73 -104 81 -115 32 -48 167 -215 209 -260 24
-26 42 -49 40 -51 -6 -5 -93 9 -199 33 -124 29 -290 38 -383 21 -40 -7 -119
-29 -177 -50 -169 -61 -251 -72 -376 -49 -58 10 -82 17 -197 59 -85 30 -201
50 -294 50 -79 0 -127 -7 -323 -49 -52 -11 -96 -19 -98 -17 -2 2 41 57 95 123
101 121 188 234 238 311 19 29 46 52 79 69 158 79 291 219 377 396 13 26 25
47 28 47 4 0 27 -45 54 -99 47 -98 108 -171 142 -171 35 0 88 66 142 176 l55
113 57 -72 c32 -40 86 -98 122 -131z"/>
<path d="M750 1294 c-30 -8 -93 -21 -140 -27 -76 -11 -85 -15 -88 -35 -3 -20
0 -22 50 -22 29 0 89 10 133 21 60 16 110 22 200 22 132 0 179 -10 345 -69
103 -36 108 -37 250 -37 134 -1 151 1 220 27 185 69 228 78 360 79 94 0 147
-5 213 -22 48 -11 110 -21 138 -21 47 0 50 2 47 22 -3 20 -11 24 -63 30 -32 4
-101 17 -152 28 -161 35 -319 23 -471 -36 -103 -39 -113 -42 -176 -54 -122
-21 -262 -5 -386 44 -113 45 -180 58 -305 62 -85 2 -136 -1 -175 -12z"/>
<path d="M790 1031 c-15 -4 -26 -15 -28 -28 -3 -22 -1 -22 125 -21 142 0 217
-15 368 -75 78 -31 83 -31 245 -31 l165 0 93 37 c145 57 194 67 341 67 110 0
133 3 138 16 10 27 -11 35 -104 41 -124 8 -244 -15 -377 -72 -54 -23 -176 -45
-250 -45 -87 0 -164 15 -286 56 -164 56 -344 79 -430 55z"/>
<path d="M737 653 c-3 -5 -8 -151 -12 -326 -7 -307 -6 -319 12 -315 15 3 19
16 24 93 8 109 14 138 46 192 23 41 65 73 97 73 8 0 24 -12 35 -26 19 -24 21
-40 21 -158 0 -103 3 -136 16 -154 26 -37 84 -24 84 20 0 20 -15 24 -25 8 -5
-8 -11 -7 -21 1 -12 10 -14 32 -8 118 7 121 -4 180 -41 217 -45 45 -132 21
-176 -48 l-21 -33 7 158 c5 117 4 162 -5 172 -14 16 -26 19 -33 8z"/>
<path d="M1497 653 c-5 -8 -21 -432 -22 -573 0 -58 2 -65 20 -65 18 0 20 8 23
83 2 62 7 84 17 89 24 8 61 -22 104 -85 44 -65 81 -95 114 -90 36 5 33 35 -6
51 -21 9 -50 38 -80 80 -25 35 -54 68 -64 71 -14 6 -12 10 13 25 66 40 127
142 111 185 -10 26 -36 18 -43 -11 -11 -51 -25 -80 -52 -106 -26 -24 -91 -67
-102 -67 -3 0 -5 93 -5 207 0 147 -3 207 -12 210 -6 2 -13 0 -16 -4z"/>
<path d="M1235 427 c-111 -36 -173 -222 -115 -342 56 -116 209 -94 265 37 21
52 19 163 -4 213 -34 73 -92 110 -146 92z m75 -75 c78 -78 57 -236 -39 -284
-131 -65 -185 186 -63 289 36 31 68 29 102 -5z"/>
<path d="M104 411 c-62 -38 -94 -108 -94 -205 0 -81 16 -133 50 -168 24 -24
36 -28 82 -28 36 0 65 7 93 23 47 27 76 70 58 88 -9 9 -18 5 -40 -18 -64 -68
-157 -62 -188 13 -23 55 -20 64 18 57 52 -8 113 14 158 57 40 38 41 41 37 92
-5 42 -11 57 -37 80 -38 34 -91 37 -137 9z m119 -63 c18 -24 19 -30 7 -59 -16
-38 -76 -68 -137 -69 -50 0 -53 11 -24 76 38 83 112 108 154 52z"/>
<path d="M459 407 c-53 -35 -89 -95 -98 -161 -16 -116 17 -192 94 -222 39 -15
52 -15 87 -4 66 19 131 95 99 114 -5 3 -25 -10 -45 -29 -32 -30 -44 -35 -86
-35 -37 0 -56 6 -77 24 -26 23 -28 30 -28 98 0 59 5 81 25 116 36 64 101 92
130 57 19 -23 40 -18 40 8 0 56 -80 75 -141 34z"/>
<path d="M1939 418 c-53 -20 -108 -93 -124 -167 -12 -55 -7 -139 11 -177 16
-34 58 -64 89 -64 34 0 76 33 104 81 l28 50 6 -41 c10 -76 47 -107 98 -80 25
14 27 55 2 45 -32 -12 -36 -10 -50 15 -14 25 -12 170 3 261 6 34 4 37 -37 59
-49 26 -92 32 -130 18z m84 -49 c20 -5 37 -14 37 -19 0 -34 -34 -159 -55 -199
-24 -49 -66 -91 -90 -91 -33 0 -58 37 -63 92 -7 90 28 170 92 209 36 22 31 22
79 8z"/>
<path d="M2237 424 c-4 -4 -7 -48 -7 -98 -1 -50 -5 -136 -9 -191 -7 -77 -6
-103 4 -114 20 -21 35 -4 35 42 0 73 20 170 44 217 26 49 76 90 112 90 44 0
55 -35 53 -171 -2 -138 7 -175 46 -185 30 -7 65 18 65 48 0 14 -7 18 -32 16
l-33 -3 -1 130 c0 72 -5 142 -11 156 -13 30 -58 69 -80 69 -29 0 -93 -41 -120
-77 l-28 -37 -5 54 c-5 50 -17 70 -33 54z"/>
<path d="M2759 418 c-13 -5 -41 -25 -61 -45 -90 -87 -99 -289 -16 -347 51 -36
125 1 164 82 10 20 19 30 20 22 12 -73 17 -91 30 -105 31 -31 104 -3 104 40 0
19 -24 19 -40 0 -17 -21 -25 -19 -38 10 -14 30 -15 122 -2 219 9 72 5 100 -14
93 -6 -3 -21 4 -32 15 -25 22 -78 29 -115 16z m117 -61 c10 -10 -27 -159 -52
-209 -24 -47 -66 -88 -91 -88 -8 0 -25 11 -38 25 -21 20 -25 33 -25 87 0 72
22 128 66 172 26 25 34 28 81 24 29 -3 56 -7 59 -11z"/>
</g>
</svg>
